<?xml version="1.0" encoding="UTF-8"?>
<svg id="Layer_1" data-name="Layer 1" xmlns="http://www.w3.org/2000/svg" viewBox="0 0 288 215.33">
  <defs>
    <style>
      .cls-1 {
        fill: #fcb315;
      }

      .cls-2 {
        fill: #231f20;
      }
    </style>
  </defs>
  <g>
    <polygon class="cls-1" points="2.5 212.83 2.5 2.5 137.37 2.5 137.37 33.16 33.5 33.16 33.5 182.16 177.17 182.16 177.17 212.83 2.5 212.83"/>
    <path class="cls-2" d="M134.87,5v25.66H31v154h143.67v25.66H5V5h129.87M139.87,0H0v215.33h179.67v-35.66H36V35.66h103.87V0h0Z"/>
  </g>
  <g>
    <polygon class="cls-1" points="253.41 212.83 215.27 107.87 255.87 33.17 177.17 33.16 177.17 173.02 146.5 173.02 146.5 2.5 285.5 2.5 285.5 35.03 246.14 107.46 284.43 212.83 253.41 212.83"/>
    <path class="cls-2" d="M283,5v29.39l-38.52,70.88-1.08,1.98.77,2.12,36.69,100.96h-25.7l-37.16-102.25,38.06-70.02,4.02-7.39h-8.41s-72,0-72,0h-5s0,5,0,5v134.86h-25.67V5h134M288,0h-144v175.52h35.67V35.66h72s-39.13,72-39.13,72l39.13,107.66h36.34l-39.13-107.66,39.13-72V0h0Z"/>
  </g>
</svg>