<?xml version="1.0" encoding="UTF-8"?>
<svg id="Layer_1" xmlns="http://www.w3.org/2000/svg" version="1.1" viewBox="0 0 278 215.33">
  <!-- Generator: Adobe Illustrator 30.2.0, SVG Export Plug-In . SVG Version: 2.1.1 Build 105)  -->
  <defs>
    <style>
      .st0 {
        fill: #fcb315;
      }

      .st1 {
        fill: #231f20;
      }
    </style>
  </defs>
  <g>
    <polygon class="st0" points="2.5 212.83 2.5 2.5 127.37 2.5 127.37 33.16 33.5 33.16 33.5 182.16 167.17 182.16 167.17 212.83 2.5 212.83"/>
    <path class="st1" d="M124.87,5v25.66H31v154h133.67v25.66H5V5h119.87M129.87,0H0v215.33h169.67v-35.66H36V35.66h93.87V0h0Z"/>
  </g>
  <g>
    <polygon class="st0" points="243.41 212.83 205.27 107.87 245.87 33.17 167.17 33.16 167.17 173.02 136.5 173.02 136.5 2.5 275.5 2.5 275.5 35.03 236.14 107.46 274.43 212.83 243.41 212.83"/>
    <path class="st1" d="M273,5v29.39l-38.52,70.88-1.08,1.98.77,2.12,36.69,100.96h-25.7l-37.16-102.25,38.06-70.02,4.02-7.39h-85.41v139.86h-25.67V5h134M278,0h-144v175.52h35.67V35.66h72l-39.13,72,39.13,107.66h36.34l-39.13-107.66,39.13-72V0h-.01Z"/>
  </g>
</svg>